<svg width="101" height="59" viewBox="0 0 101 59" fill="none" xmlns="http://www.w3.org/2000/svg">
<g id="Group">
<path id="Vector" d="M9.9279 0.118159C8.47061 0.492329 7.3481 1.4376 6.69822 2.8949C6.30436 3.76139 6.28467 4.13556 6.28467 14.829V25.8571L5.53633 26.2116C3.56701 27.1569 1.38107 29.1065 0.534262 30.7016L0.0813192 31.5484L0.0222397 43.6007C-0.0368398 56.992 -0.0762261 56.5391 1.26291 57.5631C1.93248 58.0751 2.16879 58.1342 3.94118 58.1933C6.61945 58.3115 7.52534 58.1342 8.37214 57.3859C9.23864 56.6375 9.33711 56.3618 9.9279 53.5457C10.243 51.9112 10.499 51.1825 10.8338 50.8281L11.267 50.3554H50.3974H89.5277L89.9609 50.8281C90.2957 51.1825 90.5517 51.9112 90.8668 53.5457C91.4576 56.3618 91.5561 56.6375 92.4226 57.3859C93.2694 58.1342 94.1753 58.3115 96.8535 58.1933C98.6259 58.1342 98.8622 58.0751 99.5318 57.5631C100.871 56.5391 100.832 56.992 100.772 43.6007L100.713 31.5484L100.26 30.7016C99.4137 29.1065 97.2277 27.1569 95.2584 26.2116L94.5101 25.8571V14.829C94.5101 4.13556 94.4904 3.76139 94.0965 2.8949C93.6042 1.81177 92.8755 1.02404 91.8515 0.472636L91.0637 0.0393859L50.7912 -4.01342e-07C28.6364 -4.01342e-07 10.2627 0.0393859 9.9279 0.118159ZM91.0047 3.4463L91.4576 3.89925L91.5167 14.2185L91.5758 24.5377L89.9412 23.9863C89.0354 23.6909 87.3811 23.1985 86.2389 22.8835C85.0967 22.5684 84.1514 22.3124 84.1121 22.2927C84.0924 22.273 84.2696 21.82 84.5059 21.2883C84.9195 20.4021 84.9589 20.0476 84.9589 16.5816C84.9589 12.2098 84.7816 11.5008 83.3046 9.92536C82.2412 8.78315 81.3944 8.33021 79.8386 8.03481C78.3223 7.75911 55.5964 7.73941 54.1194 8.01512C52.8984 8.25144 51.6971 8.82254 50.9488 9.55119L50.3974 10.0632L49.8656 9.55119C49.0976 8.82254 47.8963 8.25144 46.6754 8.01512C45.1984 7.73941 22.4724 7.75911 20.9561 8.03481C19.4003 8.33021 18.5535 8.78315 17.4901 9.92536C16.0131 11.5008 15.8359 12.2098 15.8359 16.5816C15.8359 20.0476 15.8752 20.4021 16.2888 21.2883C16.5251 21.82 16.7024 22.273 16.6827 22.2927C16.6433 22.3124 15.698 22.5684 14.5558 22.8835C13.4136 23.1985 11.7594 23.6909 10.8732 23.9863L9.23864 24.5377V14.4548C9.23864 3.68262 9.23864 3.64324 10.2233 3.15091C10.6172 2.95397 18.8686 2.91459 50.6337 2.95397L90.5517 2.99336L91.0047 3.4463ZM47.2465 11.2842C47.6206 11.5008 48.1326 11.9734 48.369 12.3476C48.7825 12.9384 48.8219 13.2141 48.8219 15.8924C48.8219 18.3737 48.7825 18.8267 48.5068 18.9251C48.3296 18.9842 46.9314 19.0433 45.3559 19.0433C39.8221 19.0433 29.1681 20.0083 22.9254 21.0914C19.7942 21.6231 19.7548 21.6231 19.0655 20.1264C18.7701 19.4962 18.6914 18.8267 18.6914 16.6604C18.6914 13.3717 18.7701 12.9384 19.5579 12.0522C20.6804 10.7525 20.385 10.7722 34.1505 10.8312C46.2618 10.8706 46.5769 10.8706 47.2465 11.2842ZM80.2719 11.2054C80.6264 11.4023 81.1581 11.875 81.4535 12.2885C81.9852 12.9975 82.0049 13.0566 82.064 16.0499C82.1427 19.3387 81.9458 20.343 81.0596 21.1702L80.6264 21.564L77.8693 21.0914C71.6463 20.0083 60.9726 19.0433 55.4388 19.0433C53.8634 19.0433 52.4651 18.9842 52.2879 18.9251C52.0122 18.8267 51.9728 18.3737 51.9728 15.9515C51.9728 12.9778 52.091 12.4461 52.9181 11.6977C53.9224 10.7919 54.0997 10.7722 67.235 10.8312C78.6177 10.8706 79.7008 10.8903 80.2719 11.2054ZM55.5176 21.9973C66.0337 22.3124 73.7731 23.1395 81.3747 24.7543C90.0791 26.6055 96.3218 29.3822 97.5428 31.9226C97.7988 32.4543 97.8579 33.2814 97.8579 36.0582V39.5242H93.5845C89.4686 39.5242 89.2914 39.5439 88.8581 39.9574C88.0507 40.7058 88.3461 41.8874 89.4095 42.2615C89.7837 42.3994 91.5955 42.4782 93.939 42.4782H97.8579V48.8784V55.2984L96.0461 55.2393L94.2343 55.1802L93.8208 53.1125C93.1118 49.6071 92.6589 48.78 90.9259 47.9135L89.9019 47.4014H50.3974H10.8929L9.86882 47.9135C8.13582 48.78 7.68288 49.6071 6.97393 53.1125L6.56037 55.1802L4.7486 55.2393L2.93683 55.2984V48.8784V42.4782L43.5244 42.4388L84.1121 42.3797L84.5847 41.8283C85.1558 41.1587 85.1755 40.7255 84.6438 40.0362L84.2499 39.5242H43.5835H2.93683V36.0582C2.93683 32.1589 3.03529 31.7454 4.31535 30.5835C9.33711 26.0541 25.5643 22.5881 44.3909 22.017C46.9904 21.9382 49.2552 21.8594 49.4127 21.8397C49.5702 21.82 52.3273 21.8988 55.5176 21.9973Z" fill="#7D7D7D"/>
</g>
</svg>
