<svg width="102" height="83" viewBox="0 0 102 83" fill="none" xmlns="http://www.w3.org/2000/svg">
<g id="Group">
<path id="Vector" d="M0.253887 0.25389C-0.084629 0.592406 -0.084629 24.9257 0.253887 25.2642C0.592403 25.6028 29.7048 25.6028 30.0433 25.2642C30.3818 24.9257 30.3818 0.592406 30.0433 0.25389C29.7048 -0.0846256 0.592403 -0.0846256 0.253887 0.25389ZM28.6892 12.7591V23.9102H15.1486H1.60795V12.7591V1.60795H15.1486H28.6892V12.7591Z" fill="#7D7D7D"/>
<path id="Vector_2" d="M11.405 19.3701C11.2656 19.5095 11.166 19.7683 11.166 19.9475C11.166 20.6445 11.624 20.744 15.2481 20.6843C18.3744 20.6246 18.8125 20.5847 19.0116 20.2661C19.1709 20.0272 19.1709 19.8281 19.0116 19.5692C18.8125 19.2705 18.3744 19.2307 15.2282 19.1709C12.6196 19.1311 11.5842 19.1909 11.405 19.3701Z" fill="#7D7D7D"/>
<path id="Vector_3" d="M38.4862 0.253884C38.1477 0.5924 38.1477 13.7746 38.4862 14.1131C38.6654 14.2923 38.1676 14.3521 36.256 14.3521C33.4682 14.3521 32.7713 14.591 32.1739 15.7261C31.8155 16.4429 31.7756 18.5537 32.1142 18.8922C32.4527 19.2307 53.6 19.2307 53.9385 18.8922C54.3367 18.4939 54.2372 16.3433 53.7792 15.6066C53.142 14.5512 52.5048 14.3521 49.7767 14.3521C47.7456 14.3521 47.3872 14.3122 47.5863 14.0733C47.7456 13.8941 47.8054 11.8829 47.7655 7.08394C47.7058 0.930916 47.6859 0.333535 47.3673 0.134408C47.1084 -0.0248941 46.9093 -0.0248941 46.6703 0.134408C46.3318 0.333535 46.3119 0.930916 46.2522 7.08394C46.2124 11.8829 46.2721 13.8941 46.4314 14.0733C46.6305 14.3122 46.073 14.3521 43.0064 14.3521C40.1788 14.3521 39.4221 14.2923 39.6013 14.1131C39.7806 13.9339 39.8403 12.1219 39.8403 7.1835C39.8403 0.293709 39.8005 0.0149313 39.0438 0.0149313C38.8646 0.0149313 38.6256 0.114495 38.4862 0.253884ZM52.3455 16.184C52.4849 16.3234 52.5844 16.6819 52.5844 16.9806V17.5381H43.0263H33.4682V16.9806C33.4682 16.6819 33.5678 16.3234 33.7072 16.184C34.0457 15.8455 52.0069 15.8455 52.3455 16.184Z" fill="#7D7D7D"/>
<path id="Vector_4" d="M56.0094 0.25389C55.6709 0.592406 55.6709 24.9257 56.0094 25.2642C56.3479 25.6028 101.39 25.6028 101.729 25.2642C102.067 24.9257 102.067 0.592406 101.729 0.25389C101.39 -0.0846256 56.3479 -0.0846256 56.0094 0.25389ZM78.3116 1.84691C77.9731 2.18542 77.9731 23.3327 78.3116 23.6712C78.4908 23.8504 76.2009 23.9102 67.957 23.9102H57.3634V12.7591V1.60795H67.957C76.2009 1.60795 78.4908 1.66769 78.3116 1.84691ZM100.375 12.7591V23.9102H89.7813C81.5375 23.9102 79.2475 23.8504 79.4267 23.6712C79.7652 23.3327 79.7652 2.18542 79.4267 1.84691C79.2475 1.66769 81.5375 1.60795 89.7813 1.60795H100.375V12.7591Z" fill="#7D7D7D"/>
<path id="Vector_5" d="M63.9745 19.3701C63.8352 19.5095 63.7356 19.7683 63.7356 19.9475C63.7356 20.6445 64.1936 20.744 67.8177 20.6843C70.944 20.6246 71.3821 20.5847 71.5812 20.2661C71.7405 20.0272 71.7405 19.8281 71.5812 19.5692C71.3821 19.2705 70.944 19.2307 67.7978 19.1709C65.1892 19.1311 64.1538 19.1909 63.9745 19.3701Z" fill="#7D7D7D"/>
<path id="Vector_6" d="M86.2768 19.3701C86.1374 19.5095 86.0378 19.7683 86.0378 19.9475C86.0378 20.6445 86.4958 20.744 90.1199 20.6843C93.2462 20.6246 93.6843 20.5847 93.8834 20.2661C94.0427 20.0272 94.0427 19.8281 93.8834 19.5692C93.6843 19.2705 93.2462 19.2307 90.1 19.1709C87.4915 19.1311 86.456 19.1909 86.2768 19.3701Z" fill="#7D7D7D"/>
<path id="Vector_7" d="M36.8734 21.0029C36.7141 21.1821 36.6544 21.9388 36.6942 23.1137C36.734 24.627 36.8137 25.0054 37.1124 25.1846C37.3513 25.3439 37.5504 25.3439 37.8093 25.1846C38.0881 25.0054 38.1677 24.627 38.2076 23.1137C38.2673 21.2021 38.108 20.7242 37.4509 20.7242C37.2518 20.7242 36.9929 20.8436 36.8734 21.0029Z" fill="#7D7D7D"/>
<path id="Vector_8" d="M42.4489 21.0029C42.2896 21.1822 42.2298 22.3371 42.2696 24.7067C42.3294 27.7334 42.3692 28.1715 42.6878 28.3706C42.9268 28.5299 43.1259 28.5299 43.3847 28.3706C43.6834 28.1715 43.7233 27.7334 43.783 24.7067C43.8427 21.1622 43.7432 20.7242 43.0263 20.7242C42.8272 20.7242 42.5683 20.8436 42.4489 21.0029Z" fill="#7D7D7D"/>
<path id="Vector_9" d="M48.0244 21.0029C47.8651 21.1821 47.8054 21.9388 47.8452 23.1137C47.885 24.627 47.9647 25.0054 48.2634 25.1846C48.5023 25.3439 48.7014 25.3439 48.9603 25.1846C49.2391 25.0054 49.3187 24.627 49.3586 23.1137C49.4183 21.2021 49.259 20.7242 48.6019 20.7242C48.4028 20.7242 48.1439 20.8436 48.0244 21.0029Z" fill="#7D7D7D"/>
<path id="Vector_10" d="M86.2767 36.8933C85.9382 37.2318 85.9382 42.4489 86.2767 42.7874C86.456 42.9666 86.2967 43.0264 85.5002 43.0264C84.4846 43.0264 84.4647 43.0065 84.405 42.4091C84.2855 41.1347 83.0111 41.1347 82.8916 42.4091L82.8319 43.0264H79.8848C77.8736 43.0264 76.878 43.106 76.7187 43.2653C76.4 43.5839 76.4 45.6548 76.7187 45.9734C76.8979 46.1527 74.6477 46.2124 66.603 46.2124C58.8171 46.2124 56.1887 46.2721 56.0094 46.4514C55.8302 46.6306 55.7108 46.6306 55.5315 46.4514C55.193 46.1128 30.8597 46.1128 30.5212 46.4514C30.342 46.6306 30.2225 46.6306 30.0433 46.4514C29.7048 46.1128 0.592403 46.1128 0.253887 46.4514C-0.0647163 46.77 -0.0647163 50.4339 0.253887 50.7525C0.433101 50.9317 0.433101 51.0512 0.253887 51.2304C-0.084629 51.5689 -0.084629 79.0883 0.253887 79.4268C0.433101 79.606 0.433101 79.7255 0.253887 79.9047C-0.0647163 80.2233 -0.0647163 82.2942 0.253887 82.6128C0.592403 82.9513 29.7048 82.9513 30.0433 82.6128C30.2225 82.4336 30.342 82.4336 30.5212 82.6128C30.8597 82.9513 55.193 82.9513 55.5315 82.6128C55.7108 82.4336 55.8302 82.4336 56.0094 82.6128C56.348 82.9513 101.39 82.9513 101.729 82.6128C102.048 82.2942 102.048 80.2233 101.729 79.9047C101.55 79.7255 101.55 79.606 101.729 79.4268C102.068 79.0883 102.068 51.5689 101.729 51.2304C101.55 51.0512 101.55 50.9317 101.729 50.7525C101.888 50.5932 101.968 49.8166 101.968 48.6019C101.968 47.3872 101.888 46.6107 101.729 46.4514C101.57 46.292 100.694 46.2124 99.1005 46.2124C97.2486 46.2124 96.7707 46.1527 96.95 45.9734C97.2686 45.6548 97.2686 43.5839 96.95 43.2653C96.7907 43.106 95.795 43.0264 93.7838 43.0264H90.8368L90.777 42.4091C90.6575 41.1347 89.3831 41.1347 89.2637 42.4091C89.2039 43.0065 89.184 43.0264 88.1685 43.0264C87.3719 43.0264 87.2126 42.9666 87.3919 42.7874C87.5512 42.6281 87.6308 41.6723 87.6308 39.8403C87.6308 37.0725 87.5312 36.6543 86.8343 36.6543C86.6551 36.6543 86.4161 36.7539 86.2767 36.8933ZM95.5959 45.1769C95.5959 45.4756 95.6955 45.8341 95.8348 45.9734C96.0141 46.1527 94.0228 46.2124 86.8343 46.2124C79.6458 46.2124 77.6545 46.1527 77.8338 45.9734C77.9732 45.8341 78.0727 45.4756 78.0727 45.1769V44.6194H86.8343H95.5959V45.1769ZM43.0264 47.8054C52.3057 47.8054 55.3523 47.7457 55.5315 47.5665C55.7108 47.3872 55.7705 47.6859 55.7705 48.9205C55.7705 49.8962 55.8701 50.6131 56.0094 50.7525C56.1887 50.9317 56.1887 51.0512 56.0094 51.2304C55.6709 51.5689 55.6709 79.0883 56.0094 79.4268C56.1887 79.606 56.1887 79.7255 56.0094 79.9047C55.8701 80.0441 55.7705 80.5021 55.7705 80.9401C55.7705 81.5574 55.7108 81.6769 55.5315 81.4977C55.193 81.1592 30.8597 81.1592 30.5212 81.4977C30.342 81.6769 30.2822 81.5574 30.2822 80.9401C30.2822 80.5021 30.1827 80.0441 30.0433 79.9047C29.8641 79.7255 29.8641 79.606 30.0433 79.4268C30.3818 79.0883 30.3818 51.5689 30.0433 51.2304C29.8641 51.0512 29.8641 50.9317 30.0433 50.7525C30.1827 50.6131 30.2822 49.8962 30.2822 48.9205C30.2822 47.6859 30.342 47.3872 30.5212 47.5665C30.7004 47.7457 33.747 47.8054 43.0264 47.8054ZM28.6892 48.6019V49.3984H15.1486H1.60795V48.6019V47.8054H15.1486H28.6892V48.6019ZM100.375 48.6019V49.3984H78.8692H57.3635V48.6019V47.8054H78.8692H100.375V48.6019ZM14.591 51.2304C14.2525 51.5689 14.2525 77.4952 14.591 77.8338C14.7702 78.013 13.3564 78.0727 8.21897 78.0727H1.60795V64.771C1.60795 54.6952 1.54821 51.4096 1.369 51.2304C1.18978 51.0512 2.64341 50.9914 7.98001 50.9914C13.3166 50.9914 14.7702 51.0512 14.591 51.2304ZM28.9282 51.2304C28.749 51.4096 28.6892 54.6952 28.6892 64.771V78.0727H22.0782C16.9407 78.0727 15.5269 78.013 15.7061 77.8338C16.0447 77.4952 16.0447 51.5689 15.7061 51.2304C15.5269 51.0512 16.9806 50.9914 22.3172 50.9914C27.6538 50.9914 29.1074 51.0512 28.9282 51.2304ZM71.9396 51.2304C71.7604 51.4096 71.7007 52.6243 71.7007 55.4519C71.7007 58.5583 71.6409 59.3747 71.4617 59.1955C71.1232 58.857 57.941 58.857 57.6025 59.1955C57.4232 59.3747 57.3635 58.5583 57.3635 55.4519C57.3635 52.6243 57.3038 51.4096 57.1246 51.2304C56.9453 51.0512 58.5782 50.9914 64.5321 50.9914C70.486 50.9914 72.1188 51.0512 71.9396 51.2304ZM86.2767 51.2304C85.9382 51.5689 85.9382 77.4952 86.2767 77.8338C86.456 78.013 85.0422 78.0727 79.9047 78.0727H73.2937V64.771C73.2937 54.6952 73.2339 51.4096 73.0547 51.2304C72.8755 51.0512 74.3291 50.9914 79.6657 50.9914C85.0023 50.9914 86.456 51.0512 86.2767 51.2304ZM100.614 51.2304C100.435 51.4096 100.375 54.6952 100.375 64.771V78.0727H93.7639C88.6264 78.0727 87.2126 78.013 87.3919 77.8338C87.7304 77.4952 87.7304 51.5689 87.3919 51.2304C87.2126 51.0512 88.6663 50.9914 94.0029 50.9914C99.3395 50.9914 100.793 51.0512 100.614 51.2304ZM64.5321 60.5495C69.4704 60.5495 71.2825 60.4898 71.4617 60.3106C71.6409 60.1314 71.7007 61.0673 71.7007 64.5321C71.7007 67.9969 71.6409 68.9328 71.4617 68.7536C71.1232 68.4151 57.941 68.4151 57.6025 68.7536C57.4232 68.9328 57.3635 67.9969 57.3635 64.5321C57.3635 61.0673 57.4232 60.1314 57.6025 60.3106C57.7817 60.4898 59.5937 60.5495 64.5321 60.5495ZM64.5321 70.1076C69.4704 70.1076 71.2825 70.0479 71.4617 69.8687C71.6409 69.6895 71.7007 70.5656 71.7007 73.8512V78.0727H64.5321H57.3635V73.8512C57.3635 70.5656 57.4232 69.6895 57.6025 69.8687C57.7817 70.0479 59.5937 70.1076 64.5321 70.1076ZM28.9282 79.9047C28.7888 80.0441 28.6892 80.4025 28.6892 80.7012V81.2587H15.1486H1.60795V80.7012C1.60795 80.4025 1.50839 80.0441 1.369 79.9047C1.18978 79.7255 4.23643 79.6657 15.1486 79.6657C26.0607 79.6657 29.1074 79.7255 28.9282 79.9047ZM100.614 79.9047C100.475 80.0441 100.375 80.4025 100.375 80.7012V81.2587H78.8692H57.3635V80.7012C57.3635 80.4025 57.2639 80.0441 57.1246 79.9047C56.9453 79.7255 61.7642 79.6657 78.8692 79.6657C95.9742 79.6657 100.793 79.7255 100.614 79.9047Z" fill="#7D7D7D"/>
<path id="Vector_11" d="M33.6674 49.7768C33.1696 50.7127 34.3842 51.4295 34.9418 50.5335C35.1011 50.2945 35.1011 50.0954 34.9418 49.8365C34.6232 49.3387 33.9262 49.2989 33.6674 49.7768Z" fill="#7D7D7D"/>
<path id="Vector_12" d="M51.1906 49.7768C50.6927 50.7127 51.9074 51.4295 52.465 50.5335C52.6243 50.2945 52.6243 50.0954 52.465 49.8365C52.1464 49.3387 51.4494 49.2989 51.1906 49.7768Z" fill="#7D7D7D"/>
<path id="Vector_13" d="M36.8534 51.3698C36.3556 52.3057 37.5703 53.0226 38.1278 52.1265C38.2871 51.8875 38.2871 51.6884 38.1278 51.4295C37.8092 50.9317 37.1123 50.8919 36.8534 51.3698Z" fill="#7D7D7D"/>
<path id="Vector_14" d="M40.0793 51.2304C39.9598 51.3499 39.8403 51.6287 39.8403 51.8079C39.8403 52.4849 40.3182 52.6044 43.1259 52.5446C45.4955 52.4849 45.8938 52.4451 46.0929 52.1265C46.2522 51.8875 46.2522 51.6884 46.0929 51.4295C45.8938 51.1308 45.4756 51.091 43.106 51.0313C41.1147 50.9914 40.2585 51.0512 40.0793 51.2304Z" fill="#7D7D7D"/>
<path id="Vector_15" d="M48.0045 51.3698C47.5067 52.3057 48.7214 53.0226 49.2789 52.1265C49.4382 51.8875 49.4382 51.6884 49.2789 51.4295C48.9603 50.9317 48.2634 50.8919 48.0045 51.3698Z" fill="#7D7D7D"/>
<path id="Vector_16" d="M32.1142 56.0094C31.7757 56.348 31.7757 79.0883 32.1142 79.4268C32.4528 79.7653 53.6 79.7653 53.9386 79.4268C54.2771 79.0883 54.2771 56.348 53.9386 56.0094C53.6 55.6709 32.4528 55.6709 32.1142 56.0094ZM52.5845 67.7181V78.0727H43.0264H33.4683V67.7181V57.3635H43.0264H52.5845V67.7181Z" fill="#7D7D7D"/>
<path id="Vector_17" d="M35.3003 59.1955C34.9817 59.5141 35.0016 60.0517 35.3401 60.3305C35.5193 60.4898 37.7495 60.5296 43.1259 60.5097C50.0357 60.45 50.6729 60.4301 50.872 60.0916C51.0313 59.8526 51.0313 59.6535 50.872 59.3946C50.6729 59.076 50.0357 59.0561 43.106 58.9964C37.3911 58.9565 35.4795 59.0163 35.3003 59.1955Z" fill="#7D7D7D"/>
<path id="Vector_18" d="M5.0329 54.4164C4.91342 54.5359 4.79395 54.8147 4.79395 54.9939C4.79395 55.6709 5.27185 55.7904 8.07954 55.7307C10.4492 55.6709 10.8474 55.6311 11.0465 55.3125C11.2058 55.0736 11.2058 54.8744 11.0465 54.6156C10.8474 54.3169 10.4292 54.277 8.05963 54.2173C6.06836 54.1775 5.21211 54.2372 5.0329 54.4164Z" fill="#7D7D7D"/>
<path id="Vector_19" d="M19.3701 54.4164C19.2506 54.5359 19.1311 54.8147 19.1311 54.9939C19.1311 55.6709 19.609 55.7904 22.4167 55.7307C24.7863 55.6709 25.1846 55.6311 25.3837 55.3125C25.543 55.0736 25.543 54.8744 25.3837 54.6156C25.1846 54.3169 24.7664 54.277 22.3968 54.2173C20.4055 54.1775 19.5493 54.2372 19.3701 54.4164Z" fill="#7D7D7D"/>
<path id="Vector_20" d="M62.3815 54.4164C62.2621 54.5359 62.1426 54.8147 62.1426 54.9939C62.1426 55.6311 62.6404 55.7904 64.6317 55.7307C66.2247 55.6909 66.6229 55.6112 66.8021 55.3125C66.9615 55.0736 66.9615 54.8744 66.8021 54.6156C66.6229 54.3368 66.2247 54.2571 64.6118 54.2173C63.2378 54.1775 62.5607 54.2372 62.3815 54.4164Z" fill="#7D7D7D"/>
<path id="Vector_21" d="M76.7187 54.4164C76.5992 54.5359 76.4797 54.8147 76.4797 54.9939C76.4797 55.6709 76.9576 55.7904 79.7653 55.7307C82.1349 55.6709 82.5332 55.6311 82.7323 55.3125C82.8916 55.0736 82.8916 54.8744 82.7323 54.6156C82.5332 54.3169 82.115 54.277 79.7454 54.2173C77.7541 54.1775 76.8979 54.2372 76.7187 54.4164Z" fill="#7D7D7D"/>
<path id="Vector_22" d="M91.0558 54.4164C90.9364 54.5359 90.8169 54.8147 90.8169 54.9939C90.8169 55.6709 91.2948 55.7904 94.1025 55.7307C96.4721 55.6709 96.8704 55.6311 97.0695 55.3125C97.2288 55.0736 97.2288 54.8744 97.0695 54.6156C96.8704 54.3169 96.4522 54.277 94.0826 54.2173C92.0913 54.1775 91.2351 54.2372 91.0558 54.4164Z" fill="#7D7D7D"/>
<path id="Vector_23" d="M62.3815 63.9745C62.2621 64.094 62.1426 64.3728 62.1426 64.552C62.1426 65.1892 62.6404 65.3485 64.6317 65.2888C66.2247 65.249 66.6229 65.1693 66.8021 64.8706C66.9615 64.6317 66.9615 64.4325 66.8021 64.1737C66.6229 63.8949 66.2247 63.8152 64.6118 63.7754C63.2378 63.7356 62.5607 63.7953 62.3815 63.9745Z" fill="#7D7D7D"/>
<path id="Vector_24" d="M62.3815 73.5326C62.2621 73.6521 62.1426 73.9308 62.1426 74.1101C62.1426 74.7473 62.6404 74.9066 64.6317 74.8468C66.2247 74.807 66.6229 74.7274 66.8021 74.4287C66.9615 74.1897 66.9615 73.9906 66.8021 73.7317C66.6229 73.4529 66.2247 73.3733 64.6118 73.3335C63.2378 73.2936 62.5607 73.3534 62.3815 73.5326Z" fill="#7D7D7D"/>
<path id="Vector_25" d="M32.1142 43.2653C31.7956 43.5839 31.8155 44.1216 32.154 44.4003C32.3333 44.5596 33.7272 44.6194 36.7539 44.5795C40.6369 44.5198 41.1148 44.48 41.3139 44.1614C41.4732 43.9224 41.4732 43.7233 41.3139 43.4644C41.1148 43.1657 40.6369 43.1259 36.734 43.0662C33.5081 43.0264 32.2934 43.0861 32.1142 43.2653Z" fill="#7D7D7D"/>
<path id="Vector_26" d="M44.8584 43.2653C44.5398 43.5839 44.5597 44.1216 44.8982 44.4003C45.0774 44.5596 46.4713 44.6194 49.498 44.5795C53.381 44.5198 53.8589 44.48 54.058 44.1614C54.2173 43.9224 54.2173 43.7233 54.058 43.4644C53.8589 43.1657 53.381 43.1259 49.4781 43.0662C46.2523 43.0264 45.0376 43.0861 44.8584 43.2653Z" fill="#7D7D7D"/>
</g>
</svg>
