<svg width="80" height="73" viewBox="0 0 80 73" fill="none" xmlns="http://www.w3.org/2000/svg">
<g id="Group">
<path id="Vector" d="M8.93767 0.187447C8.84392 0.296821 7.81268 3.59368 6.64081 7.48428C4.89082 13.3436 4.53145 14.6561 4.67207 14.953L4.84395 15.3124H9.29705H13.7501V19.9842V24.6404L11.8908 24.7342C10.3283 24.7967 9.90642 24.8748 9.3908 25.1717C8.65642 25.5779 7.96893 26.7654 7.96893 27.6092V28.1248H4.32833C1.29709 28.1248 0.640847 28.1717 0.343974 28.3748C0.015851 28.6092 0.000226128 28.7029 0.000226128 31.2498C0.000226128 34.4841 -0.0622735 34.3747 1.89084 34.3747H3.28146L3.31271 53.3903L3.35958 72.4214L5.45332 72.4683C6.85956 72.4995 7.60956 72.4526 7.75018 72.3276C7.93768 72.1714 7.96893 69.187 7.96893 53.2653V34.3747H28.5157H49.0624V47.4372C49.0624 56.1402 49.1093 60.5933 49.2187 60.7965C49.3749 61.0933 49.6718 61.0933 60.703 61.0933H72.0311V66.6089C72.0311 70.687 72.0779 72.1714 72.2186 72.312C72.3436 72.437 73.0779 72.4995 74.4842 72.4995H76.5623L76.7185 72.0933C76.8123 71.8433 76.8748 64.7808 76.8748 53.0309V34.3747H78.1873C80.0623 34.3747 79.9998 34.4685 79.9998 31.2498C79.9998 28.7029 79.9841 28.6092 79.656 28.3748C79.3591 28.1717 78.7654 28.1248 76.2185 28.1248C73.9685 28.1248 73.1248 28.0779 73.1248 27.9373C73.1248 27.8435 73.3123 26.4373 73.531 24.8123C73.9373 21.9842 73.9373 21.8592 73.6717 21.5623C73.4685 21.3279 73.1873 21.2498 72.6248 21.2498H71.8748L72.5779 20.1248C73.3279 18.9217 73.4217 18.5936 73.0623 18.2811C72.5467 17.8592 72.1561 18.1717 71.1873 19.7186C70.2811 21.1717 70.2029 21.2342 69.6873 21.2498C69.1404 21.2498 69.1092 21.2029 68.2186 19.6405C67.7186 18.7655 67.203 17.9217 67.0623 17.7655C66.7342 17.4061 66.1405 17.4217 65.9373 17.828C65.7811 18.0936 65.8905 18.3748 66.6248 19.6561L67.4842 21.1717L67.0467 21.2811C66.2342 21.4998 66.2186 21.5936 66.6405 24.6248C66.8592 26.156 67.0311 27.5779 67.0311 27.7654V28.1248H63.1561C58.7968 28.1248 59.0936 28.2029 58.2968 26.8748C57.6249 25.7654 57.953 24.6717 59.3592 23.3748C59.9686 22.7967 59.9999 22.2342 59.4374 22.0311C59.2186 21.9373 58.0311 21.8748 56.7968 21.8748H54.5624L54.0937 21.2811C53.1093 20.0155 52.9999 19.1717 53.7343 18.1717C54.5312 17.0623 54.6405 17.0311 57.1874 17.0311C58.7499 17.0311 59.5311 16.9686 59.6561 16.8436C59.9842 16.5155 59.8592 15.9686 59.3905 15.6405C59.1405 15.453 58.7186 14.9842 58.453 14.578C57.6093 13.2967 57.8593 12.2811 59.3592 10.8749C59.9061 10.3436 59.9842 9.78114 59.5467 9.53114C59.3436 9.43739 55.9061 9.37489 49.4687 9.37489C40.8125 9.37489 39.6875 9.40614 39.4687 9.62489C39.2656 9.82801 39.2187 10.3436 39.2187 12.7499V15.6249H37.2188C34.3281 15.6249 34.5313 15.328 34.5313 19.5155C34.5313 21.9373 34.5781 22.9529 34.7188 23.0936C34.8438 23.2186 35.5938 23.2811 37.0625 23.2811H39.2187V25.7029V28.1248H31.4844H23.7501V27.7498C23.7501 27.1873 23.3126 26.0623 22.922 25.656C22.2813 24.9685 21.7657 24.8123 19.8282 24.7342L17.9689 24.6404V19.9842V15.3124L22.4376 15.2811C26.4688 15.2342 26.9376 15.203 27.0938 14.9686C27.2188 14.7655 26.7813 13.1405 25.0938 7.54678C23.9063 3.6093 22.8751 0.296821 22.7813 0.187447C22.6563 0.0468229 21.0782 -5.18262e-05 15.8595 -5.18262e-05C10.6408 -5.18262e-05 9.06267 0.0468229 8.93767 0.187447ZM23.6407 7.53115C24.6407 10.9061 25.4688 13.7186 25.4688 13.7811C25.4688 13.8592 21.1407 13.9061 15.8439 13.9061C6.40644 13.9061 6.21894 13.9061 6.29706 13.6092C6.32831 13.4374 7.17206 10.6249 8.1408 7.35928L9.92204 1.40619H15.8595H21.797L23.6407 7.53115ZM57.3436 10.8124C57.3436 10.8436 57.1718 11.203 56.953 11.6249C56.6874 12.1561 56.5624 12.6561 56.5624 13.203C56.5624 13.7499 56.6874 14.2499 56.953 14.7811C57.1718 15.203 57.3436 15.5624 57.3436 15.578C57.3436 15.6092 53.578 15.6249 48.9843 15.6249H40.625V13.203V10.7811H48.9843C53.578 10.7811 57.3436 10.7968 57.3436 10.8124ZM16.5626 19.9998V24.6873H15.8595H15.1564V19.9998V15.3124H15.8595H16.5626V19.9998ZM52.6562 17.0936C52.6562 17.1405 52.4843 17.4998 52.2655 17.9061C51.7343 18.8905 51.7343 19.9842 52.2655 21.0311C52.4843 21.4529 52.6562 21.8123 52.6562 21.8279C52.6562 21.8592 48.8906 21.8748 44.2968 21.8748H35.9375V19.453V17.0311H44.2968C48.8906 17.0311 52.6562 17.0623 52.6562 17.0936ZM72.3436 22.8592C72.3436 22.9529 72.2029 24.1873 72.0154 25.5935L71.6717 28.1404L70.0936 28.0935L68.5154 28.0467L68.1717 25.6248C67.9842 24.2967 67.828 23.0936 67.828 22.9529C67.8123 22.7342 68.0936 22.6873 70.0779 22.6717C71.7811 22.6717 72.3436 22.7029 72.3436 22.8592ZM57.3436 23.3279C57.3436 23.3436 57.1718 23.7029 56.953 24.1248C56.4374 25.1404 56.4374 26.2029 56.953 27.2967L57.328 28.1248H48.9843H40.625V25.7029V23.2811H48.9843C53.578 23.2967 57.3436 23.3123 57.3436 23.3279ZM21.6563 26.3592C22.0001 26.5623 22.3438 27.2967 22.3438 27.8279C22.3438 28.1092 22.0626 28.1248 15.8595 28.1248H9.37517V27.7342C9.37517 27.0935 9.79704 26.4217 10.2814 26.3123C10.5158 26.2654 10.7814 26.2029 10.8595 26.1717C10.9533 26.1404 13.3439 26.1404 16.172 26.1404C19.922 26.1717 21.422 26.2185 21.6563 26.3592ZM78.5935 31.2498V32.9685H40H1.40647V31.2498V29.531L40 29.5466H78.5935V31.2498ZM6.56269 52.734V71.0933H5.54707H4.53145V52.734V34.3747H5.54707H6.56269V52.734ZM72.0311 40.3903V46.4059L61.2967 46.3747L50.5468 46.3278L50.4999 40.3435L50.4687 34.3747H61.2499H72.0311V40.3903ZM75.4685 52.734V71.0933H74.4529H73.4373V52.734V34.3747H74.4529H75.4685V52.734ZM72.0311 53.7496V59.6871H61.2499H50.4687V53.7496V47.8122H61.2499H72.0311V53.7496Z" fill="#7D7D7D"/>
<path id="Vector_2" d="M58.6248 39.8747C58.3592 40.1403 58.3904 40.5309 58.7185 40.8278C58.9685 41.0466 59.3904 41.0934 61.2966 41.0934C63.6873 41.0934 64.0622 40.9841 64.0622 40.3278C64.0622 39.7497 63.7654 39.6872 61.2498 39.6872C59.5623 39.6872 58.7498 39.7497 58.6248 39.8747Z" fill="#7D7D7D"/>
<path id="Vector_3" d="M58.7811 53.2184C58.5936 53.3434 58.4374 53.5777 58.4374 53.734C58.4374 54.3121 58.7343 54.3746 61.2655 54.3746C63.9217 54.3746 64.1873 54.2965 63.9998 53.5309C63.8748 53.0309 63.5623 52.9684 61.1717 52.9684C59.578 52.9684 59.0624 53.0152 58.7811 53.2184Z" fill="#7D7D7D"/>
</g>
</svg>
