<svg width="101" height="74" viewBox="0 0 101 74" fill="none" xmlns="http://www.w3.org/2000/svg">
<g id="Group">
<path id="Vector" d="M11.9346 0.493161L11.4414 0.966599V22.2318C11.4414 38.96 11.5006 43.5957 11.6979 43.9902C11.9346 44.4637 11.9938 44.4834 14.4596 44.5426C15.8404 44.5623 16.9648 44.6215 16.9648 44.6609C16.9648 44.7004 16.6492 45.4105 16.2744 46.2391L15.6037 47.7383H8.40352C4.26094 47.7383 1.00605 47.8172 0.710156 47.9355C-0.138086 48.2512 -0.118359 48.8627 0.867969 51.2102L1.77539 53.3604V60.7578V68.1553L0.887695 70.266C0.394531 71.4299 0 72.5148 0 72.6924C0 72.8502 0.177539 73.1658 0.394531 73.3828C0.789063 73.7773 1.04551 73.7773 50.5 73.7773C99.9545 73.7773 100.211 73.7773 100.605 73.3828C100.822 73.1658 101 72.8502 101 72.6924C101 72.5148 100.605 71.4299 100.112 70.266L99.2246 68.1553V60.7578V53.3604L100.132 51.2102C101.118 48.8627 101.138 48.2512 100.29 47.9355C99.9939 47.8172 96.7391 47.7383 92.5965 47.7383H85.3963L84.7256 46.2391C84.3508 45.4105 84.0352 44.7004 84.0352 44.6609C84.0352 44.6215 85.1596 44.5623 86.5404 44.5426C89.0063 44.4834 89.0654 44.4637 89.3022 43.9902C89.4994 43.5957 89.5586 38.96 89.5586 22.2318V0.966599L89.0654 0.493161L88.592 -2.78652e-06H50.5H12.408L11.9346 0.493161ZM87.1914 22.291V42.4121H50.5H13.8086V22.291V2.16992H50.5H87.1914V22.291ZM21.423 45.6078C20.3775 47.9355 20.5945 47.7383 19.2137 47.7383H17.9906L18.7008 46.1602L19.4109 44.582H20.6537H21.8965L21.423 45.6078ZM77.3873 46.101L78.0777 47.6396L64.2889 47.6988C56.7139 47.7186 44.2861 47.7186 36.7111 47.6988L22.9223 47.6396L23.6127 46.101L24.3229 44.582H50.5H76.6772L77.3873 46.101ZM82.2992 46.1602L83.0094 47.7383H81.7863C80.4055 47.7383 80.6225 47.9355 79.577 45.6078L79.1035 44.582H80.3463H81.5891L82.2992 46.1602ZM98.1791 50.1449C98.1199 50.283 97.9227 50.7762 97.7451 51.2299L97.4098 52.0781H50.5H3.59023L3.25488 51.2299C3.07734 50.7762 2.88008 50.283 2.8209 50.1449C2.74199 49.9674 12.3488 49.9082 50.5 49.9082C88.6512 49.9082 98.258 49.9674 98.1791 50.1449ZM6.9043 60.7578V67.0703H5.4248H3.94531V60.7578V54.4453H5.4248H6.9043V60.7578ZM35.3105 60.7578V67.0703H22.1924H9.07422V60.7578V54.4453H22.1924H35.3105V60.7578ZM63.5195 57.0098V59.5742H50.5H37.4805V57.0098V54.4453H50.5H63.5195V57.0098ZM91.9258 60.7578V67.0703H78.8076H65.6895V60.7578V54.4453H78.8076H91.9258V60.7578ZM97.0547 60.7578V67.0703H95.5752H94.0957V60.7578V54.4453H95.5752H97.0547V60.7578ZM63.5195 64.5059V67.0703H50.5H37.4805V64.5059V61.9414H50.5H63.5195V64.5059ZM97.7451 70.2857C97.9227 70.7395 98.1199 71.2326 98.1791 71.351C98.258 71.5482 88.6512 71.6074 50.5 71.6074C12.3488 71.6074 2.74199 71.5482 2.8209 71.351C2.88008 71.2326 3.07734 70.7395 3.25488 70.266L3.59023 69.4375H50.5H97.4098L97.7451 70.2857Z" fill="#7D7D7D"/>
<path id="Vector_2" d="M20.7721 58.0158C18.4838 59.1402 18.5035 62.3951 20.7918 63.4998C21.8176 64.0127 22.3502 64.0127 23.3957 63.5392C24.5793 63.0066 25.1514 62.0992 25.1514 60.7578C25.1514 59.4164 24.5793 58.509 23.3957 57.9763C22.3502 57.5029 21.7781 57.5029 20.7721 58.0158ZM22.6461 60.0871C23.2181 60.4816 23.1984 61.0734 22.6066 61.4482C22.2318 61.7047 22.0346 61.7244 21.7189 61.5468C21.206 61.2707 21.1469 60.2646 21.6597 59.9885C22.1135 59.7123 22.1332 59.7123 22.6461 60.0871Z" fill="#7D7D7D"/>
<path id="Vector_3" d="M77.6043 57.9763C76.4207 58.509 75.8486 59.4164 75.8486 60.7578C75.8486 62.0992 76.4207 63.0066 77.6043 63.5392C78.6498 64.0127 79.1824 64.0127 80.2082 63.4998C81.3326 62.9672 81.9047 62.0203 81.9047 60.7578C81.9047 59.4953 81.3326 58.5484 80.2082 58.0158C79.1824 57.5029 78.6498 57.5029 77.6043 57.9763ZM79.3205 59.9687C79.8531 60.2646 79.8334 61.2707 79.2811 61.5468C78.9654 61.7244 78.7682 61.7047 78.3934 61.4482C77.8016 61.0734 77.7818 60.4816 78.3539 60.0871C78.8865 59.7123 78.8273 59.7123 79.3205 59.9687Z" fill="#7D7D7D"/>
</g>
</svg>
