<svg width="102" height="80" viewBox="0 0 102 80" fill="none" xmlns="http://www.w3.org/2000/svg">
<g id="Group">
<path id="Vector" d="M26.0971 0.185918C24.4238 0.371839 21.635 1.21881 20.1269 1.9625C18.3297 2.87145 16.1606 4.50342 14.7765 5.94948C12.0704 8.82093 10.6863 11.4238 9.4468 15.8653C9.26088 16.5676 9.17825 23.8599 9.07496 46.9554L8.97167 77.116L4.86074 77.178C1.39021 77.2193 0.667186 77.2813 0.357317 77.5705C-0.0145258 77.9217 -0.117815 78.5827 0.150738 78.9959C0.584554 79.6569 1.22495 79.6982 11.0375 79.6982H20.8706L21.3664 79.1818C21.9655 78.6034 22.0068 78.3142 21.5523 77.6738C21.2425 77.2193 21.1598 77.2193 16.3879 77.2193H11.5539V47.8231C11.5539 28.1774 11.6159 18.0137 11.7811 17.1874C13.0206 10.1637 18.0405 4.62737 24.6717 2.95408C26.7375 2.41697 30.146 2.45829 32.3151 3.03671C39.1529 4.83395 44.0901 10.6801 45.123 18.179L45.247 19.1292L44.1521 19.3565C40.5783 20.1002 37.4383 22.889 36.1781 26.4628C35.7856 27.5783 35.641 28.5079 35.5584 30.1399C35.4345 33.2386 35.3931 33.2179 39.2975 33.2179H42.2309L42.7474 34.1888C44.5239 37.5354 49.3579 37.3289 50.7833 33.8583L51.0518 33.2179H53.82C56.3609 33.2179 56.6295 33.1766 57.022 32.7841C57.4351 32.371 57.4558 32.185 57.3525 30.1399C57.2286 27.4957 56.7121 25.8224 55.4313 23.8805C53.944 21.6495 51.3824 19.9142 48.8208 19.3771L47.7259 19.1499L47.602 18.179C46.4038 8.51106 39.5041 1.26013 30.4559 0.185918C28.4108 -0.0619772 28.2042 -0.0619772 26.0971 0.185918ZM49.9776 22.4138C51.6716 23.2195 52.7871 24.1904 53.6341 25.5952C54.3571 26.814 54.9355 28.7352 54.9355 29.954V30.739H46.4658H37.996V29.954C37.996 27.8675 39.2355 25.12 40.7849 23.7773C42.5821 22.2279 44.276 21.6288 46.7757 21.7115C48.3457 21.7528 48.8414 21.8561 49.9776 22.4138ZM48.2011 33.4452C48.1391 33.5691 47.7466 33.7963 47.3747 33.9616C46.7757 34.2095 46.5691 34.2095 45.97 33.9616C44.6892 33.4245 44.8751 33.2179 46.6724 33.2179C47.8499 33.2179 48.3043 33.2799 48.2011 33.4452Z" fill="#7D7D7D"/>
<path id="Vector_2" d="M42.4788 24.4382C41.198 25.4092 40.0618 26.9379 40.0618 27.6609C40.0618 28.2393 40.6816 28.8797 41.2806 28.8797C41.7145 28.8797 45.0197 25.4092 45.0197 24.934C45.0197 24.4382 44.3174 23.7152 43.8009 23.7152C43.5943 23.7152 42.9953 24.0457 42.4788 24.4382Z" fill="#7D7D7D"/>
<path id="Vector_3" d="M35.3106 44.8897C34.0298 45.3028 32.9762 46.2324 32.3358 47.5132C31.7987 48.5668 31.7987 48.6494 31.7987 53.2355V57.9041L30.5799 58.2553C29.1132 58.6891 27.5225 60.0526 26.8202 61.4573C26.3244 62.4489 26.3244 62.5109 26.2624 70.5468L26.2004 78.6653L26.7169 79.1818L27.2333 79.6982H32.3152H37.397L37.8928 79.1818C38.2853 78.81 38.4093 78.4588 38.4093 77.7357V76.8061H63.9011H89.3724L89.4756 77.8597C89.6616 79.6156 89.5583 79.595 95.2599 79.6569C100.548 79.7189 101.333 79.6156 101.54 78.7893C101.602 78.5621 101.622 74.7817 101.581 70.4022C101.519 62.7588 101.499 62.4076 101.065 61.478C100.837 60.9615 100.238 60.1559 99.7633 59.6807C98.937 58.8957 97.0984 58.0074 96.2514 58.0074C95.9003 58.0074 95.8589 57.7389 95.797 53.2974C95.7143 48.1536 95.6524 47.8024 94.3922 46.3564C94.0204 45.9432 93.318 45.3854 92.8635 45.1376C92.0166 44.6831 91.9959 44.6831 79.2087 44.6831C67.1031 44.6831 66.3594 44.7037 65.6777 45.0756C65.2852 45.2822 64.7068 45.6953 64.3969 45.9845L63.8185 46.5216L63.2607 45.9845C61.794 44.6211 62.5171 44.6831 48.7382 44.6418C38.4712 44.6004 36.0749 44.6624 35.3106 44.8897ZM60.8851 47.3479C61.195 47.5132 61.6701 47.8851 61.9593 48.1949L62.4757 48.7527L62.5377 56.582L62.5997 64.4114H50.5148H38.4506L38.306 63.4198C38.0787 61.8291 37.4177 60.5484 36.2815 59.5568C35.7237 59.0403 35.042 58.5652 34.7735 58.5032L34.2777 58.3793V53.6899C34.2777 49.3724 34.319 48.9799 34.6908 48.3395C35.4758 47.0587 35.2486 47.0794 48.387 47.0587C58.2409 47.0587 60.4306 47.1001 60.8851 47.3479ZM91.686 47.4306C92.0785 47.6165 92.595 48.0503 92.8222 48.3602C93.2354 48.8973 93.256 49.2691 93.318 53.6693L93.38 58.3999L92.5743 58.8131C91.1696 59.5361 89.6616 61.6639 89.6409 62.9653C89.6409 63.2545 89.5789 63.6884 89.517 63.9363L89.393 64.4114H77.2255H65.058V56.8093C65.058 49.5997 65.0786 49.1865 65.4711 48.5461C65.6984 48.1743 66.1735 47.6991 66.5454 47.4719C67.2064 47.0794 67.6196 47.0587 79.1054 47.0587C90.0127 47.0587 91.0456 47.0794 91.686 47.4306ZM33.7199 60.7756C34.6082 61.1268 35.4552 62.1597 35.7237 63.1719C35.8477 63.6677 35.9097 66.4565 35.889 70.5468L35.827 77.116H32.3152H28.8033L28.7414 70.5055C28.7 66.2293 28.762 63.6264 28.9066 63.1306C29.5057 61.0235 31.7368 59.9286 33.7199 60.7756ZM96.8092 60.7136C97.1191 60.8169 97.6562 61.1681 97.9867 61.478C99.1229 62.5315 99.1435 62.7588 99.1435 70.2989V77.2193L95.5904 77.178L92.0166 77.116V70.0923C92.0166 63.9569 92.0579 62.986 92.3471 62.4489C93.256 60.8169 95.1359 60.0732 96.8092 60.7136ZM89.4343 70.6088V74.3272H63.9218H38.4093V70.6088V66.8903H63.9218H89.4343V70.6088Z" fill="#7D7D7D"/>
</g>
</svg>
