<svg width="83" height="83" viewBox="0 0 83 83" fill="none" xmlns="http://www.w3.org/2000/svg">
<g id="Group">
<path id="Vector" d="M0.697872 0.357009C0.493869 0.544011 0.255866 0.901015 0.153865 1.13902C0.0688642 1.39402 0.000863331 16.9492 0.000863331 41.3275C0.000863331 84.882 -0.0671375 81.975 1.00388 82.519C1.46288 82.757 5.52593 82.791 41.4814 82.791C77.4368 82.791 81.4999 82.757 81.9589 82.519C83.0299 81.975 82.9619 84.882 82.9619 41.3275C82.9619 16.9492 82.8939 1.39402 82.8089 1.13902C82.7069 0.901015 82.4689 0.544011 82.2649 0.357009L81.8739 4.23566e-06H41.4814H1.08888L0.697872 0.357009ZM81.0919 3.48505V5.27007H41.4814H1.87089V3.48505V1.70003H41.4814H81.0919V3.48505ZM40.6314 11.6451V16.1502H21.2511H1.87089V11.6451V7.14009H21.2511H40.6314V11.6451ZM81.0919 28.7304V50.3206H78.0318H74.9888L75.3118 49.5896C75.9578 48.1956 75.6348 46.1726 74.5978 45.1016L74.0708 44.5575L74.6658 43.8775C75.3458 43.0785 75.6518 42.2115 75.6518 41.0385C75.6518 40.1205 75.0738 38.7095 74.4958 38.1995L74.1388 37.8765L74.7168 37.1455C75.4648 36.1594 75.7028 35.3604 75.6178 34.1874C75.4988 32.5384 74.5978 31.2294 73.1868 30.5834C72.5577 30.2944 71.8097 30.2604 61.8986 30.2604C54.3335 30.2604 51.1035 30.3114 50.6445 30.4644C49.0125 30.9404 47.8734 32.6234 47.8734 34.5104C47.8734 35.7344 48.1625 36.4654 48.9785 37.3325L49.4715 37.8425L49.0295 38.2675C47.5674 39.6275 47.4314 42.0925 48.7235 43.7925L49.3015 44.5575L48.7915 45.2036C48.2135 45.9006 47.7714 47.1756 47.7714 48.0086C47.7884 48.4676 47.9584 49.0626 48.3665 50.0146C48.4855 50.3036 48.2815 50.3206 45.4084 50.3206H42.3314V28.7304V7.14009H61.7116H81.0919V28.7304ZM7.95696 20.1623L7.90596 22.3043L7.05595 22.6273C6.00194 23.0183 4.84592 24.1063 4.35292 25.1433C3.99591 25.9253 3.99591 26.0103 3.94491 42.0925C3.92791 52.5306 3.96191 58.4297 4.08091 58.7187C4.16591 58.9567 4.48892 59.3137 4.79492 59.5007C5.30493 59.8067 5.66193 59.8407 8.68797 59.8407C10.626 59.8407 12.241 59.7727 12.547 59.6537C13.669 59.2627 13.601 60.3337 13.601 42.4495C13.601 24.4633 13.652 25.3813 12.462 23.9873C11.884 23.2903 10.49 22.4403 9.94598 22.4403C9.72498 22.4403 9.69098 22.1003 9.69098 20.2303V18.0202H15.046H20.4181L20.3671 20.1623L20.3161 22.3043L19.4321 22.6443C18.3611 23.0353 17.2561 24.0723 16.7801 25.1263C16.4061 25.9253 16.4061 25.9423 16.3551 42.0925C16.3381 52.5306 16.3721 58.4297 16.4911 58.7187C16.5761 58.9567 16.8991 59.3137 17.2051 59.5007C17.7151 59.8067 18.0721 59.8407 21.1151 59.8407C22.9511 59.8407 24.6512 59.7727 24.8722 59.6877C25.1102 59.5857 25.4672 59.3477 25.6542 59.1437L26.0112 58.7527V42.5005C26.0112 24.4463 26.0622 25.3813 24.8722 23.9873C24.2942 23.2903 22.9001 22.4403 22.3561 22.4403C22.1351 22.4403 22.1011 22.1003 22.1011 20.2303V18.0202H27.4562H32.8283L32.7773 20.1623L32.7263 22.3043L31.8423 22.6443C30.7712 23.0353 29.6662 24.0723 29.1902 25.1263C28.8162 25.9253 28.8162 25.9423 28.7652 42.0925C28.7482 52.5306 28.7822 58.4297 28.9012 58.7187C28.9862 58.9567 29.3092 59.3137 29.6152 59.5007C30.1252 59.8067 30.4822 59.8407 33.5253 59.8407C35.3613 59.8407 37.0613 59.7727 37.2823 59.6877C37.5203 59.5857 37.8773 59.3477 38.0643 59.1437L38.4213 58.7527V42.5005C38.4213 24.4463 38.4723 25.3813 37.2823 23.9873C36.7043 23.2903 35.3103 22.4403 34.7663 22.4403C34.5453 22.4403 34.5113 22.1003 34.5113 20.2303V18.0202H37.5713H40.6314V46.8356V75.6509H39.7983H38.9483L38.8973 72.7609L38.8463 69.8709L38.3703 69.4119L37.9113 68.9358H30.4992H23.0871L22.5941 69.4969L22.1011 70.0409V72.8629V75.6679L21.2171 75.6169L20.3161 75.5659L20.2141 72.5909C20.1631 70.9589 20.1121 69.5989 20.0951 69.5649C20.0781 69.5479 19.8061 69.3779 19.5171 69.1908C18.9731 68.8678 18.6331 68.8508 11.901 68.8508C5.16893 68.8508 4.82892 68.8678 4.30192 69.1908C3.99591 69.3779 3.72391 69.5479 3.70691 69.5649C3.68991 69.5989 3.63891 70.9589 3.58791 72.5909L3.48591 75.5659L2.6869 75.6169L1.87089 75.6679V46.8526V18.0202H4.93092H8.00796L7.95696 20.1623ZM9.70798 24.1743C10.592 24.4803 11.187 24.9903 11.561 25.7553C11.901 26.4353 11.901 26.8093 11.901 42.2115V57.9707H8.75597H5.61093V42.4495C5.61093 31.9944 5.67893 26.7413 5.79793 26.2993C6.03594 25.4323 6.88595 24.5313 7.73596 24.2253C8.58597 23.9193 8.97697 23.9193 9.70798 24.1743ZM22.1181 24.1743C23.0021 24.4803 23.5972 24.9903 23.9712 25.7553C24.3112 26.4353 24.3112 26.8093 24.3112 42.2115V57.9707H21.1661H18.0211V42.4495C18.0211 31.9944 18.0891 26.7413 18.2081 26.2993C18.4461 25.4323 19.2961 24.5313 20.1461 24.2253C20.9961 23.9193 21.3871 23.9193 22.1181 24.1743ZM35.2593 24.5483C35.7693 24.8373 36.1263 25.2283 36.3643 25.7213C36.7213 26.4523 36.7213 26.5713 36.7213 42.2115V57.9707H33.5763H30.4312V42.4495C30.4312 31.9944 30.4992 26.7413 30.6182 26.2993C30.9922 24.9393 32.5053 23.8853 33.8653 24.0383C34.2223 24.0723 34.8513 24.3103 35.2593 24.5483ZM72.7278 32.3004C74.3428 33.2864 74.3428 35.5644 72.7278 36.5505C72.1837 36.8735 71.8437 36.8905 61.8306 36.8905C50.3045 36.8905 50.6785 36.9245 49.9475 35.7514C49.2165 34.5444 49.6075 33.0314 50.8145 32.3174C51.4095 31.9774 51.5965 31.9604 61.7966 31.9604C71.8437 31.9604 72.1837 31.9774 72.7278 32.3004ZM72.7788 39.0665C74.4108 40.0695 74.3088 42.4665 72.5918 43.3845C72.0307 43.6735 71.4697 43.6905 61.5926 43.6565C51.3925 43.6055 51.1885 43.6055 50.7295 43.2485C49.9305 42.6535 49.5905 42.0585 49.5905 41.2765C49.5905 39.9845 50.3045 39.0495 51.5625 38.7605C51.8515 38.6755 56.6286 38.6245 62.1366 38.6415L72.1667 38.6755L72.7788 39.0665ZM72.5918 45.6966C73.5268 46.1556 74.0028 47.0056 73.9178 48.0426C73.8328 48.9776 73.4588 49.6236 72.7278 50.0486C72.3367 50.2866 71.0617 50.3206 61.7626 50.3206C51.6645 50.3206 51.2395 50.3036 50.7125 49.9806C49.0125 48.9436 49.2845 46.3256 51.1715 45.5776C51.4435 45.4756 55.4555 45.4076 61.7966 45.4076C71.1807 45.3906 72.0477 45.4076 72.5918 45.6966ZM81.0919 58.9907V65.7908L61.7626 65.7568L42.4164 65.7058L42.3654 58.9397L42.3314 52.1906H61.7116H81.0919V58.9907ZM81.0919 74.2909V81.091H61.7116H42.3314V74.2909V67.4908H61.7116H81.0919V74.2909ZM18.5311 73.1009V75.6509H11.901H5.27093V73.1009V70.5509H11.901H18.5311V73.1009ZM37.1463 73.1009V75.5659L30.4822 75.6169L23.8012 75.6509V73.2199C23.8012 71.8769 23.8522 70.7209 23.9202 70.6699C23.9882 70.6019 26.9802 70.5679 30.5842 70.5849L37.1463 70.6359V73.1009ZM40.6314 79.221V81.091H21.2511H1.87089V79.221V77.3509H21.2511H40.6314V79.221Z" fill="#7D7D7D"/>
<path id="Vector_2" d="M60.6236 55.8457C58.6856 56.5427 57.9036 58.9397 59.0596 60.6907C60.4706 62.8158 63.8706 62.4588 64.7716 60.0957C65.2647 58.8207 64.7886 57.0017 63.8026 56.3047C62.7656 55.5907 61.7456 55.4377 60.6236 55.8457ZM62.8676 57.9027C63.7346 58.8887 63.0716 60.3507 61.7456 60.3507C60.1646 60.3507 59.6546 58.1747 61.0996 57.5287C61.7796 57.2397 62.3746 57.3587 62.8676 57.9027Z" fill="#7D7D7D"/>
<path id="Vector_3" d="M60.7937 71.9959C59.8247 72.3359 59.3147 72.7779 58.8727 73.6109C57.5297 76.1439 60.0457 79.085 62.7487 78.167C64.1937 77.691 64.9587 76.6029 64.9587 75.0559C64.9587 74.0359 64.6867 73.3899 63.9727 72.7439C63.0377 71.8599 61.8817 71.5879 60.7937 71.9959ZM62.8167 74.0359C63.5647 74.7669 63.2587 76.1439 62.2727 76.5179C61.2357 76.9089 60.0117 75.8719 60.2667 74.8179C60.5557 73.6279 61.9837 73.1859 62.8167 74.0359Z" fill="#7D7D7D"/>
</g>
</svg>
