<svg width="67" height="88" viewBox="0 0 67 88" fill="none" xmlns="http://www.w3.org/2000/svg">
<g id="Group">
<path id="Vector" d="M31.4849 0.320317C29.7943 1.08552 27.5521 3.68366 26.3242 6.29959C25.2565 8.54182 24.9718 9.80529 24.865 12.6526L24.7582 15.1083H23.6193C22.338 15.1083 21.3771 15.4465 21.0923 15.9625C20.9678 16.1939 20.8966 17.9378 20.8966 20.7851V25.2517H18.8323C16.8036 25.2517 16.768 25.2517 16.252 25.7678L15.7359 26.2839V30.7505V35.2172H14.0453C12.07 35.2172 11.4294 35.4485 11.1269 36.3027C11.0023 36.6586 10.9311 38.4382 10.9311 41.0007V45.1471L9.29396 45.2182C8.06607 45.2716 7.51441 45.3784 7.14071 45.6275C6.69582 45.9123 0.36064 55.0769 0.0403223 55.9133C-0.0664505 56.1447 0.0403223 56.3582 0.342845 56.6785C0.71655 57.0522 0.930095 57.1056 2.03341 57.1056H3.27909V69.1887V81.2718L2.01562 81.343C0.271663 81.432 0.253868 81.4676 0.253868 84.6352V87.1799H33.1933H66.1148L66.0615 84.5106C66.0259 82.6955 65.9369 81.7879 65.7767 81.6277C65.67 81.521 65.0471 81.3786 64.4065 81.343L63.2498 81.2718V69.1887V57.1056H64.104C64.5666 57.1056 65.1361 56.9988 65.3852 56.8743C66.275 56.4116 66.0437 55.9311 62.5558 50.7348C58.7831 45.0937 58.8899 45.2005 56.3629 45.1827H54.8859V40.6626V36.1426L54.3343 35.6799C53.836 35.2528 53.658 35.2172 52.0208 35.2172H50.2591V30.7505V26.2839L49.743 25.7678C49.227 25.2517 49.1914 25.2517 47.1627 25.2517H45.0984V20.8919C45.0984 16.0337 45.0272 15.66 44.0129 15.3041C43.6926 15.1973 42.9274 15.1083 42.3223 15.1083H41.1834V13.4356C41.1834 10.0722 40.3292 7.047 38.6565 4.48445C37.5709 2.81168 35.56 0.800794 34.5457 0.320317C33.6025 -0.106774 32.4103 -0.106774 31.4849 0.320317ZM33.7805 1.9397C34.4567 2.18884 36.2897 4.11075 37.1616 5.4632C38.6743 7.8122 39.4039 10.4103 39.4039 13.4356V15.1083H38.1582H36.9125V11.7806C36.9125 8.95111 36.8769 8.41725 36.61 8.13252C36.3608 7.84779 35.9871 7.8122 32.9797 7.8122C30.1858 7.8122 29.5986 7.86559 29.3672 8.09693C29.1359 8.32827 29.0825 8.91552 29.0825 11.745V15.1083H27.8368H26.5911V13.3288C26.5911 9.28923 27.8724 6.01486 30.5061 3.32775C32.0188 1.79734 32.695 1.51261 33.7805 1.9397ZM35.133 12.35V15.1083H32.9975H30.862V12.35V9.59175H32.9975H35.133V12.35ZM24.8116 21.0698V25.2517H23.7439H22.6761V21.0698V16.8879H23.7439H24.8116V21.0698ZM39.4039 21.0698V25.2517H38.1582H36.9125V21.7994C36.9125 18.4183 36.8947 18.3293 36.521 18.0624C36.2007 17.831 35.5423 17.7777 32.9797 17.7777C30.2392 17.7777 29.7765 17.8132 29.4562 18.0802C29.1003 18.3827 29.0825 18.5962 29.0469 21.7816L28.9935 25.1628L27.8012 25.2162L26.5911 25.2695V21.0698V16.8879H32.9975H39.4039V21.0698ZM43.3189 21.0698V25.2517H42.2511H41.1834V21.0698V16.8879H42.2511H43.3189V21.0698ZM35.133 22.4045V25.2517H32.9975H30.862V22.4045V19.5572H32.9975H35.133V22.4045ZM24.8116 28.7219V30.4124H21.1635H17.5155V28.7219V27.0313H21.1635H24.8116V28.7219ZM39.4039 31.1242V35.2172H38.1582H36.9125V31.7827C36.9125 29.3447 36.8591 28.2948 36.699 28.1346C36.3964 27.8321 29.5986 27.8321 29.296 28.1346C29.1359 28.2948 29.0825 29.3447 29.0825 31.7827V35.2172H27.8368H26.5911V31.1242V27.0313H32.9975H39.4039V31.1242ZM48.4795 28.7219V30.4124H44.8315H41.1834V28.7219V27.0313H44.8315H48.4795V28.7219ZM35.133 32.4589V35.2172H32.9975H30.862V32.4589V29.7006H32.9975H35.133V32.4589ZM24.8116 33.7046V35.2172H21.1635H17.5155V33.7046V32.192H21.1635H24.8116V33.7046ZM48.4795 33.7046V35.2172H44.8315H41.1834V33.7046V32.192H44.8315H48.4795V33.7046ZM24.8116 38.6873V40.3779H18.7611H12.7107V38.6873V36.9967H18.7611H24.8116V38.6873ZM39.4039 41.0897V45.1827H38.1582H36.9125V41.8193C36.9125 38.9898 36.8591 38.4026 36.6278 38.1712C36.3964 37.9399 35.8092 37.8865 33.0687 37.8865C31.129 37.8865 29.6342 37.9577 29.4206 38.0645C29.1003 38.2424 29.0825 38.4738 29.0825 41.7125V45.1827H27.8368H26.5911V41.0897V36.9967H32.9975H39.4039V41.0897ZM53.1064 38.6873V40.3779H47.1449H41.1834V38.6873V36.9967H47.1449H53.1064V38.6873ZM35.133 42.4244V45.1827H32.9975H30.862V42.4244V39.6661H32.9975H35.133V42.4244ZM24.8116 43.67V45.1827H18.7611H12.7107V43.7946C12.7107 43.0294 12.7641 42.3354 12.8353 42.282C12.8886 42.2108 15.6113 42.1574 18.8857 42.1574H24.8116V43.67ZM53.1064 43.67V45.1827H47.1449H41.1834V43.67V42.1574H47.1449H53.1064V43.67ZM10.1837 49.5425L8.88466 52.1229H6.7848C5.14762 52.1229 4.70273 52.0695 4.8095 51.8915C5.45014 50.8416 7.83473 47.3537 8.04828 47.1757C8.22623 47.0512 8.90246 46.9622 9.899 46.9622H11.465L10.1837 49.5425ZM17.3375 47.1402C17.3375 47.2291 16.8036 48.4036 16.1452 49.7205L14.9351 52.1229H12.942H10.9311L11.3938 51.1797C11.6608 50.6815 12.2124 49.507 12.6395 48.5994L13.4047 46.9622H15.3622C16.5545 46.9622 17.3375 47.0334 17.3375 47.1402ZM23.21 47.1402C23.21 47.2291 22.6761 48.4036 22.0177 49.7205L20.8076 52.1229H18.9035C17.8358 52.1229 16.9816 52.0873 16.9816 52.0339C16.9816 51.9805 17.551 50.8238 18.2273 49.4536L19.473 46.9622H21.3415C22.4626 46.9622 23.21 47.0334 23.21 47.1402ZM39.4039 51.1441V55.3439L38.2116 55.2905L37.0015 55.2371L36.9481 51.8737C36.9125 49.0443 36.8591 48.4392 36.61 48.1723C36.3608 47.8876 35.9871 47.852 33.0153 47.852C31.2002 47.852 29.5808 47.941 29.4384 48.0299C29.2249 48.1545 29.1537 48.8485 29.0825 51.7136L28.9935 55.2371L27.8012 55.2905L26.5911 55.3439V51.1441V46.9622H32.9975H39.4039V51.1441ZM47.7321 49.5425L49.0134 52.1229H47.0559H45.0984L43.8527 49.6315C43.1765 48.2613 42.607 47.1046 42.607 47.0512C42.607 46.9978 43.4612 46.9622 44.529 46.9622H46.4331L47.7321 49.5425ZM53.6402 49.4536C54.3165 50.8238 54.8859 51.9805 54.8859 52.0339C54.8859 52.0873 54.0139 52.1229 52.9284 52.1229H50.9709L49.7252 49.6315C49.049 48.2613 48.4795 47.1046 48.4795 47.0512C48.4795 46.9978 49.3515 46.9622 50.437 46.9622H52.3945L53.6402 49.4536ZM57.9645 47.2291C58.1781 47.4427 60.794 51.2509 61.1855 51.8915C61.2923 52.0695 60.8296 52.1229 59.1034 52.1229H56.8968L55.7757 49.7561C55.1706 48.4748 54.6368 47.3003 54.5834 47.1757C54.441 46.8376 57.6264 46.8732 57.9645 47.2291ZM24.8116 50.1654V52.1229H23.8328C23.299 52.1229 22.8541 52.0873 22.8541 52.0339C22.8541 51.9093 24.7048 48.2079 24.7582 48.2079C24.7938 48.2079 24.8116 49.0799 24.8116 50.1654ZM42.963 52.0517C42.963 52.0873 42.5715 52.1229 42.0732 52.1229H41.1834L41.2012 50.201V48.2969L42.091 50.1476C42.5715 51.1619 42.963 52.0161 42.963 52.0517ZM35.133 52.4788V55.3261H32.9975H30.862V52.4788V49.6315H32.9975H35.133V52.4788ZM24.776 54.5787C24.8116 54.9346 24.7404 55.1837 24.598 55.2371C24.4735 55.2905 19.4552 55.3083 13.4581 55.2905L2.56728 55.2371L3.01216 54.5609L3.47484 53.9024L14.0987 53.938L24.7226 53.9914L24.776 54.5787ZM62.8761 54.4185C63.0896 54.7032 63.2498 55.0235 63.2498 55.1303C63.2498 55.2727 60.1 55.3261 52.2166 55.3261H41.1834V54.6142V53.9024H51.8429H62.5202L62.8761 54.4185ZM10.3973 61.2875V65.4873L7.78134 65.4339L5.14762 65.3805L5.09423 61.2342L5.05864 57.1056H7.72796H10.3973V61.2875ZM54.352 69.2065V81.3074H53.4089C52.8572 81.3074 52.3234 81.4142 52.0742 81.5922C51.7183 81.8413 51.6827 82.0015 51.6827 83.6386V85.4004H48.6575H45.6323V77.8373C45.6323 69.6692 45.5433 68.7082 44.6535 66.4838C42.4291 61.0384 36.2363 57.5683 30.5773 58.5826C25.1497 59.5614 20.7364 63.8679 19.7221 69.1709C19.5263 70.1675 19.473 72.2495 19.473 77.9441V85.4004H17.2485H15.0241V83.7454C15.0241 81.61 14.9173 81.432 13.3513 81.343L12.1768 81.2718V69.1887V57.1056H33.2644H54.352V69.2065ZM61.4702 61.2875V65.4695H58.8009H56.1316V61.2875V57.1056H58.8009H61.4702V61.2875ZM35.4889 60.5757C39.3327 61.5901 42.4825 64.8288 43.4968 68.7794C43.8171 70.0429 43.8527 70.7725 43.8527 77.7839V85.4004H42.9808H42.1088L42.0198 77.695C41.9486 69.3489 41.913 69.1709 40.8809 67.0889C40.2225 65.7898 38.3539 63.9213 36.9837 63.1917C31.5917 60.38 25.0073 63.2806 23.4947 69.1353C23.2634 70.0607 23.21 71.4843 23.21 77.8195V85.4004H22.2313H21.2525V77.9619C21.2525 69.509 21.3237 68.9574 22.5338 66.5372C24.082 63.423 27.4097 60.9138 30.7375 60.3088C31.8942 60.113 34.2076 60.2376 35.4889 60.5757ZM34.5101 64.1348C37.5353 64.9178 39.6886 67.427 40.1157 70.648C40.2047 71.3598 40.2936 74.99 40.2936 78.6737V85.4004H32.6416H24.9895V77.8551C24.9895 69.2243 25.0251 68.904 26.4844 66.9465C28.3173 64.4551 31.4671 63.3518 34.5101 64.1348ZM10.3973 67.9608V68.6727H7.72796H5.05864V67.9608V67.249H7.72796H10.3973V67.9608ZM61.4702 67.9608V68.6727H58.8009H56.1316V67.9608V67.249H58.8009H61.4702V67.9608ZM10.3973 75.8798V81.3074H7.72796H5.05864V76.0044C5.05864 73.0859 5.11203 70.6302 5.18321 70.5768C5.23659 70.5056 6.44669 70.4522 7.85253 70.4522H10.3973V75.8798ZM61.4702 75.8798V81.3074H58.8009H56.1316V75.8798V70.4522H58.8009H61.4702V75.8798ZM13.209 84.2793L13.2623 85.4004H7.63898H2.03341V84.3682C2.03341 83.7988 2.0868 83.2649 2.15798 83.2115C2.22916 83.1404 4.72053 83.1048 7.71016 83.1226L13.1556 83.176L13.209 84.2793ZM64.2819 84.2793L64.3353 85.4004H58.8899H53.4623V84.2437V83.087L58.8543 83.1226L64.2285 83.176L64.2819 84.2793Z" fill="#7D7D7D"/>
</g>
</svg>
